<mxfile host="app.diagrams.net" agent="Mozilla/5.0 (Windows NT 10.0; Win64; x64) AppleWebKit/537.36 (KHTML, like Gecko) Chrome/122.0.0.0 Safari/537.36" version="25.0.3">
  <diagram name="第 1 页" id="lKYJNV1JYSL0fNV-0X3W">
    <mxGraphModel dx="2263" dy="1896" grid="1" gridSize="10" guides="1" tooltips="1" connect="1" arrows="1" fold="1" page="1" pageScale="1" pageWidth="827" pageHeight="1169" math="0" shadow="0">
      <root>
        <mxCell id="0" />
        <mxCell id="1" parent="0" />
        <mxCell id="8JE8dJGaa-7Noi-EUSGW-1" value="" style="rounded=1;whiteSpace=wrap;html=1;glass=0;arcSize=8;" parent="1" vertex="1">
          <mxGeometry x="887.5" y="210" width="230" height="310" as="geometry" />
        </mxCell>
        <mxCell id="8JE8dJGaa-7Noi-EUSGW-2" value="" style="rounded=1;whiteSpace=wrap;html=1;fillColor=#dae8fc;strokeColor=#6c8ebf;" parent="1" vertex="1">
          <mxGeometry x="70" y="200" width="600" height="870" as="geometry" />
        </mxCell>
        <mxCell id="8JE8dJGaa-7Noi-EUSGW-3" value="Background and Basis" style="rounded=1;whiteSpace=wrap;html=1;labelPosition=center;verticalLabelPosition=top;align=center;verticalAlign=bottom;fontSize=20;fillColor=#d5e8d4;strokeColor=#82b366;" parent="1" vertex="1">
          <mxGeometry x="95" y="240" width="550" height="100" as="geometry" />
        </mxCell>
        <mxCell id="8JE8dJGaa-7Noi-EUSGW-4" value="UAVs in Large-scale Sensing&lt;span style=&quot;color: rgb(255 , 0 , 0)&quot;&gt;(§3.2)&lt;/span&gt;" style="rounded=1;whiteSpace=wrap;html=1;fontSize=19;" parent="1" vertex="1">
          <mxGeometry x="380" y="260" width="240" height="60" as="geometry" />
        </mxCell>
        <mxCell id="8JE8dJGaa-7Noi-EUSGW-5" value="Concepts of Large-scale Sensing&lt;font color=&quot;#ff0000&quot;&gt;(§3.1)&lt;/font&gt;" style="rounded=1;whiteSpace=wrap;html=1;fontSize=19;" parent="1" vertex="1">
          <mxGeometry x="145" y="260" width="205" height="60" as="geometry" />
        </mxCell>
        <mxCell id="8JE8dJGaa-7Noi-EUSGW-6" value="Modeling of UAV Navigations" style="rounded=1;whiteSpace=wrap;html=1;labelPosition=center;verticalLabelPosition=top;align=center;verticalAlign=bottom;fontSize=20;fillColor=#d5e8d4;strokeColor=#82b366;" parent="1" vertex="1">
          <mxGeometry x="95" y="500" width="550" height="100" as="geometry" />
        </mxCell>
        <mxCell id="8JE8dJGaa-7Noi-EUSGW-7" value="Collaborative Sensing" style="rounded=1;whiteSpace=wrap;html=1;labelPosition=center;verticalLabelPosition=top;align=center;verticalAlign=bottom;fontSize=20;fillColor=#d5e8d4;strokeColor=#82b366;" parent="1" vertex="1">
          <mxGeometry x="95" y="760" width="550" height="119" as="geometry" />
        </mxCell>
        <mxCell id="8JE8dJGaa-7Noi-EUSGW-8" value="Enhancing Data Collection Capabilities" style="rounded=1;whiteSpace=wrap;html=1;labelPosition=center;verticalLabelPosition=top;align=center;verticalAlign=bottom;fontSize=20;fillColor=#d5e8d4;strokeColor=#82b366;" parent="1" vertex="1">
          <mxGeometry x="95" y="630" width="550" height="100" as="geometry" />
        </mxCell>
        <mxCell id="8JE8dJGaa-7Noi-EUSGW-9" value="Opportunities and Future Directions" style="rounded=1;whiteSpace=wrap;html=1;labelPosition=center;verticalLabelPosition=top;align=center;verticalAlign=bottom;fontSize=20;fillColor=#d5e8d4;strokeColor=#82b366;" parent="1" vertex="1">
          <mxGeometry x="100" y="910" width="540" height="120" as="geometry" />
        </mxCell>
        <mxCell id="8JE8dJGaa-7Noi-EUSGW-10" value="Metrics of Sensing&lt;br&gt;&lt;span style=&quot;color: rgb(255 , 0 , 0)&quot;&gt;(§5.1)&lt;/span&gt;" style="rounded=1;whiteSpace=wrap;html=1;fontSize=19;" parent="1" vertex="1">
          <mxGeometry x="110" y="505" width="150" height="80" as="geometry" />
        </mxCell>
        <mxCell id="8JE8dJGaa-7Noi-EUSGW-11" value="Optimization Goals&lt;br&gt;&lt;span style=&quot;color: rgb(255 , 0 , 0)&quot;&gt;(§5.2)&lt;/span&gt;" style="rounded=1;whiteSpace=wrap;html=1;fontSize=19;" parent="1" vertex="1">
          <mxGeometry x="293" y="505" width="154" height="80" as="geometry" />
        </mxCell>
        <mxCell id="8JE8dJGaa-7Noi-EUSGW-12" value="Environmental Constraints&lt;br&gt;&lt;span style=&quot;color: rgb(255 , 0 , 0)&quot;&gt;(§5.3)&lt;/span&gt;" style="rounded=1;whiteSpace=wrap;html=1;fontSize=19;" parent="1" vertex="1">
          <mxGeometry x="480" y="505" width="150" height="80" as="geometry" />
        </mxCell>
        <mxCell id="8JE8dJGaa-7Noi-EUSGW-13" value="Public Datasets" style="rounded=1;whiteSpace=wrap;html=1;fontSize=19;" parent="1" vertex="1">
          <mxGeometry x="122" y="930" width="158" height="90" as="geometry" />
        </mxCell>
        <mxCell id="8JE8dJGaa-7Noi-EUSGW-14" value="Open-sourced Simulator" style="rounded=1;whiteSpace=wrap;html=1;fontSize=19;" parent="1" vertex="1">
          <mxGeometry x="293" y="930" width="168" height="90" as="geometry" />
        </mxCell>
        <mxCell id="8JE8dJGaa-7Noi-EUSGW-15" value="Opening Questions" style="rounded=1;whiteSpace=wrap;html=1;fontSize=19;" parent="1" vertex="1">
          <mxGeometry x="490" y="930" width="130" height="90" as="geometry" />
        </mxCell>
        <mxCell id="8JE8dJGaa-7Noi-EUSGW-16" value="Path Planning Algorithms" style="rounded=1;whiteSpace=wrap;html=1;labelPosition=center;verticalLabelPosition=top;align=center;verticalAlign=bottom;fontSize=20;fillColor=#d5e8d4;strokeColor=#82b366;" parent="1" vertex="1">
          <mxGeometry x="90" y="366" width="550" height="100" as="geometry" />
        </mxCell>
        <mxCell id="8JE8dJGaa-7Noi-EUSGW-17" value="Graph-based Algorithms&lt;span style=&quot;color: rgb(255 , 0 , 0)&quot;&gt;(§4.1)&lt;/span&gt;" style="rounded=1;whiteSpace=wrap;html=1;fontSize=19;" parent="1" vertex="1">
          <mxGeometry x="102" y="379" width="150" height="70" as="geometry" />
        </mxCell>
        <mxCell id="8JE8dJGaa-7Noi-EUSGW-18" value="Optimization-based Algorithms&lt;span style=&quot;color: rgb(255 , 0 , 0)&quot;&gt;(§4.2)&lt;/span&gt;" style="rounded=1;whiteSpace=wrap;html=1;fontSize=19;" parent="1" vertex="1">
          <mxGeometry x="281" y="379" width="150" height="70" as="geometry" />
        </mxCell>
        <mxCell id="8JE8dJGaa-7Noi-EUSGW-19" value="Learning-based Algorithms&lt;span style=&quot;color: rgb(255 , 0 , 0)&quot;&gt;(§4.3)&lt;/span&gt;" style="rounded=1;whiteSpace=wrap;html=1;fontSize=19;" parent="1" vertex="1">
          <mxGeometry x="456" y="379" width="156" height="70" as="geometry" />
        </mxCell>
        <mxCell id="8JE8dJGaa-7Noi-EUSGW-20" value="Improved Coverage and Efficiency&amp;nbsp;&lt;span style=&quot;color: rgb(255 , 0 , 0)&quot;&gt;(§6.1)&lt;/span&gt;" style="rounded=1;whiteSpace=wrap;html=1;fontSize=19;" parent="1" vertex="1">
          <mxGeometry x="110" y="640" width="150" height="80" as="geometry" />
        </mxCell>
        <mxCell id="8JE8dJGaa-7Noi-EUSGW-21" value="Field of View Compansation&lt;br&gt;&lt;span style=&quot;color: rgb(255 , 0 , 0)&quot;&gt;(§6.2)&lt;/span&gt;" style="rounded=1;whiteSpace=wrap;html=1;fontSize=19;" parent="1" vertex="1">
          <mxGeometry x="280" y="640" width="150" height="80" as="geometry" />
        </mxCell>
        <mxCell id="8JE8dJGaa-7Noi-EUSGW-22" value="Adaptive Sensing Strategies&lt;br&gt;&lt;span style=&quot;color: rgb(255 , 0 , 0)&quot;&gt;(§6.3)&lt;/span&gt;" style="rounded=1;whiteSpace=wrap;html=1;fontSize=19;" parent="1" vertex="1">
          <mxGeometry x="461" y="640" width="159" height="80" as="geometry" />
        </mxCell>
        <mxCell id="8JE8dJGaa-7Noi-EUSGW-23" value="Cooperative Scheduing&lt;br&gt;&lt;span style=&quot;color: rgb(255 , 0 , 0)&quot;&gt;(§7.3)&lt;/span&gt;" style="rounded=1;whiteSpace=wrap;html=1;fontSize=19;" parent="1" vertex="1">
          <mxGeometry x="461" y="779.5" width="159" height="80" as="geometry" />
        </mxCell>
        <mxCell id="8JE8dJGaa-7Noi-EUSGW-24" value="Information Gathering&lt;br&gt;&lt;span style=&quot;color: rgb(255 , 0 , 0)&quot;&gt;(§7.2)&lt;/span&gt;" style="rounded=1;whiteSpace=wrap;html=1;fontSize=19;" parent="1" vertex="1">
          <mxGeometry x="272" y="779.5" width="168" height="80" as="geometry" />
        </mxCell>
        <mxCell id="8JE8dJGaa-7Noi-EUSGW-25" value="UAV Swarm Communications&lt;br&gt;&lt;span style=&quot;color: rgb(255 , 0 , 0)&quot;&gt;(§7.1)&lt;/span&gt;" style="rounded=1;whiteSpace=wrap;html=1;fontSize=19;" parent="1" vertex="1">
          <mxGeometry x="102" y="779.5" width="159" height="80" as="geometry" />
        </mxCell>
        <mxCell id="8JE8dJGaa-7Noi-EUSGW-26" value="Concept of Large-Scale UAV Swarms&lt;font color=&quot;#ff0000&quot;&gt;(§3.1)&lt;/font&gt;" style="rounded=1;whiteSpace=wrap;html=1;fontSize=19;" parent="1" vertex="1">
          <mxGeometry x="900" y="230" width="205" height="60" as="geometry" />
        </mxCell>
        <mxCell id="8JE8dJGaa-7Noi-EUSGW-27" value="Modeling Collaborative UAV Scheduling&lt;font color=&quot;#ff0000&quot;&gt;(§3.2)&lt;/font&gt;" style="rounded=1;whiteSpace=wrap;html=1;fontSize=19;" parent="1" vertex="1">
          <mxGeometry x="900" y="335" width="205" height="60" as="geometry" />
        </mxCell>
        <mxCell id="8JE8dJGaa-7Noi-EUSGW-28" value="Spatiotemporal Constraints&lt;font color=&quot;#ff0000&quot;&gt;(§3.2)&lt;/font&gt;" style="rounded=1;whiteSpace=wrap;html=1;fontSize=19;" parent="1" vertex="1">
          <mxGeometry x="900" y="440" width="205" height="60" as="geometry" />
        </mxCell>
        <mxCell id="8JE8dJGaa-7Noi-EUSGW-29" value="&lt;span style=&quot;font-size: 20px;&quot;&gt;Background and Basis&lt;/span&gt;" style="text;html=1;align=center;verticalAlign=middle;whiteSpace=wrap;rounded=0;" parent="1" vertex="1">
          <mxGeometry x="877.5" y="170" width="250" height="30" as="geometry" />
        </mxCell>
        <mxCell id="8JE8dJGaa-7Noi-EUSGW-30" value="" style="rounded=1;whiteSpace=wrap;html=1;glass=0;arcSize=8;" parent="1" vertex="1">
          <mxGeometry x="1180" y="210" width="210" height="310" as="geometry" />
        </mxCell>
        <mxCell id="8JE8dJGaa-7Noi-EUSGW-31" value="Sampling-based Algorithms&lt;font color=&quot;#ff0000&quot;&gt;(§4.1)&lt;/font&gt;" style="rounded=1;whiteSpace=wrap;html=1;fontSize=19;" parent="1" vertex="1">
          <mxGeometry x="1192.5" y="230" width="177.5" height="60" as="geometry" />
        </mxCell>
        <mxCell id="8JE8dJGaa-7Noi-EUSGW-32" value="Graph-based Algorithms&lt;font color=&quot;#ff0000&quot;&gt;(§4.2)&lt;/font&gt;" style="rounded=1;whiteSpace=wrap;html=1;fontSize=19;" parent="1" vertex="1">
          <mxGeometry x="1192.5" y="300" width="177.5" height="60" as="geometry" />
        </mxCell>
        <mxCell id="8JE8dJGaa-7Noi-EUSGW-33" value="Optimization-based Algorithms&lt;font color=&quot;#ff0000&quot;&gt;(§4.3)&lt;/font&gt;" style="rounded=1;whiteSpace=wrap;html=1;fontSize=19;" parent="1" vertex="1">
          <mxGeometry x="1192.5" y="370" width="177.5" height="60" as="geometry" />
        </mxCell>
        <mxCell id="8JE8dJGaa-7Noi-EUSGW-34" value="&lt;span style=&quot;font-size: 20px;&quot;&gt;Algorithms for Scheduling&lt;/span&gt;" style="text;html=1;align=center;verticalAlign=middle;whiteSpace=wrap;rounded=0;" parent="1" vertex="1">
          <mxGeometry x="1156.25" y="170" width="250" height="30" as="geometry" />
        </mxCell>
        <mxCell id="8JE8dJGaa-7Noi-EUSGW-35" value="Learning-based Algorithms&lt;font color=&quot;#ff0000&quot;&gt;(§4.4)&lt;/font&gt;" style="rounded=1;whiteSpace=wrap;html=1;fontSize=19;" parent="1" vertex="1">
          <mxGeometry x="1192.5" y="440" width="177.5" height="60" as="geometry" />
        </mxCell>
        <mxCell id="8JE8dJGaa-7Noi-EUSGW-36" value="" style="rounded=1;whiteSpace=wrap;html=1;glass=0;arcSize=8;" parent="1" vertex="1">
          <mxGeometry x="1453.75" y="210" width="236.25" height="310" as="geometry" />
        </mxCell>
        <mxCell id="8JE8dJGaa-7Noi-EUSGW-37" value="Long-Term Object-Level Monitoring&lt;font color=&quot;#ff0000&quot;&gt;(§5.1)&lt;/font&gt;" style="rounded=1;whiteSpace=wrap;html=1;fontSize=19;" parent="1" vertex="1">
          <mxGeometry x="1466.25" y="230" width="203.75" height="60" as="geometry" />
        </mxCell>
        <mxCell id="8JE8dJGaa-7Noi-EUSGW-38" value="Distributed Coverage Monitoring&lt;font color=&quot;#ff0000&quot;&gt;(§5.2)&lt;/font&gt;" style="rounded=1;whiteSpace=wrap;html=1;fontSize=19;" parent="1" vertex="1">
          <mxGeometry x="1466.25" y="300" width="203.75" height="60" as="geometry" />
        </mxCell>
        <mxCell id="8JE8dJGaa-7Noi-EUSGW-39" value="Rapid Object Tracking and Interaction&lt;font color=&quot;#ff0000&quot;&gt;(§5.3)&lt;/font&gt;" style="rounded=1;whiteSpace=wrap;html=1;fontSize=19;" parent="1" vertex="1">
          <mxGeometry x="1466.25" y="370" width="203.75" height="60" as="geometry" />
        </mxCell>
        <mxCell id="8JE8dJGaa-7Noi-EUSGW-40" value="&lt;span style=&quot;font-size: 20px;&quot;&gt;Scheduling&amp;nbsp;&lt;/span&gt;&lt;span style=&quot;font-size: 20px;&quot;&gt;for Sensing&lt;/span&gt;" style="text;html=1;align=center;verticalAlign=middle;whiteSpace=wrap;rounded=0;" parent="1" vertex="1">
          <mxGeometry x="1446.88" y="170" width="250" height="30" as="geometry" />
        </mxCell>
        <mxCell id="8JE8dJGaa-7Noi-EUSGW-41" value="Sensing for Emergency Response&lt;font color=&quot;#ff0000&quot;&gt;(§5.4)&lt;/font&gt;" style="rounded=1;whiteSpace=wrap;html=1;fontSize=19;" parent="1" vertex="1">
          <mxGeometry x="1466.25" y="440" width="203.75" height="60" as="geometry" />
        </mxCell>
        <mxCell id="8JE8dJGaa-7Noi-EUSGW-42" value="" style="rounded=1;whiteSpace=wrap;html=1;glass=0;arcSize=8;" parent="1" vertex="1">
          <mxGeometry x="1756.87" y="210" width="263.13" height="310" as="geometry" />
        </mxCell>
        <mxCell id="8JE8dJGaa-7Noi-EUSGW-43" value="Static Coverage in Small Areas&lt;font color=&quot;#ff0000&quot;&gt;(§6.1)&lt;/font&gt;" style="rounded=1;whiteSpace=wrap;html=1;fontSize=19;" parent="1" vertex="1">
          <mxGeometry x="1769.37" y="230" width="240.63" height="60" as="geometry" />
        </mxCell>
        <mxCell id="8JE8dJGaa-7Noi-EUSGW-44" value="Persistent Network Deployment&lt;font color=&quot;#ff0000&quot;&gt;(§6.2)&lt;/font&gt;" style="rounded=1;whiteSpace=wrap;html=1;fontSize=19;" parent="1" vertex="1">
          <mxGeometry x="1769.37" y="300" width="240.63" height="60" as="geometry" />
        </mxCell>
        <mxCell id="8JE8dJGaa-7Noi-EUSGW-45" value="Emergency Communication Deployment&amp;nbsp;&lt;font color=&quot;#ff0000&quot;&gt;(§6.3)&lt;/font&gt;" style="rounded=1;whiteSpace=wrap;html=1;fontSize=19;" parent="1" vertex="1">
          <mxGeometry x="1769.37" y="370" width="240.63" height="60" as="geometry" />
        </mxCell>
        <mxCell id="8JE8dJGaa-7Noi-EUSGW-46" value="&lt;span style=&quot;font-size: 20px;&quot;&gt;Scheduling&amp;nbsp;&lt;/span&gt;&lt;span style=&quot;font-size: 20px;&quot;&gt;for Communication&lt;/span&gt;" style="text;html=1;align=center;verticalAlign=middle;whiteSpace=wrap;rounded=0;" parent="1" vertex="1">
          <mxGeometry x="1743.44" y="170" width="290" height="30" as="geometry" />
        </mxCell>
        <mxCell id="8JE8dJGaa-7Noi-EUSGW-47" value="Sensing for Emergency Response&lt;font color=&quot;#ff0000&quot;&gt;(§6.4)&lt;/font&gt;" style="rounded=1;whiteSpace=wrap;html=1;fontSize=19;" parent="1" vertex="1">
          <mxGeometry x="1769.37" y="440" width="240.63" height="60" as="geometry" />
        </mxCell>
        <mxCell id="8JE8dJGaa-7Noi-EUSGW-48" value="" style="rounded=1;whiteSpace=wrap;html=1;glass=0;arcSize=8;" parent="1" vertex="1">
          <mxGeometry x="2066.87" y="210" width="236.25" height="310" as="geometry" />
        </mxCell>
        <mxCell id="8JE8dJGaa-7Noi-EUSGW-49" value="Public Datasets&lt;font color=&quot;#ff0000&quot;&gt;(§7.1)&lt;/font&gt;" style="rounded=1;whiteSpace=wrap;html=1;fontSize=19;" parent="1" vertex="1">
          <mxGeometry x="2079.37" y="230" width="203.75" height="60" as="geometry" />
        </mxCell>
        <mxCell id="8JE8dJGaa-7Noi-EUSGW-50" value="Open-sourced Simulator&lt;font color=&quot;#ff0000&quot;&gt;(§7.2)&lt;/font&gt;" style="rounded=1;whiteSpace=wrap;html=1;fontSize=19;" parent="1" vertex="1">
          <mxGeometry x="2083.12" y="335" width="203.75" height="60" as="geometry" />
        </mxCell>
        <mxCell id="8JE8dJGaa-7Noi-EUSGW-51" value="&lt;span style=&quot;font-size: 20px;&quot;&gt;Opportunities &amp;amp; Future Directions&lt;/span&gt;" style="text;html=1;align=center;verticalAlign=middle;whiteSpace=wrap;rounded=0;" parent="1" vertex="1">
          <mxGeometry x="2033.44" y="170" width="320" height="30" as="geometry" />
        </mxCell>
        <mxCell id="8JE8dJGaa-7Noi-EUSGW-52" value="Opening Questions&lt;font color=&quot;#ff0000&quot;&gt;(§7.3)&lt;/font&gt;" style="rounded=1;whiteSpace=wrap;html=1;fontSize=19;" parent="1" vertex="1">
          <mxGeometry x="2079.37" y="440" width="203.75" height="60" as="geometry" />
        </mxCell>
        <mxCell id="8JE8dJGaa-7Noi-EUSGW-53" style="edgeStyle=orthogonalEdgeStyle;rounded=0;orthogonalLoop=1;jettySize=auto;html=1;exitX=1;exitY=0.5;exitDx=0;exitDy=0;" parent="1" source="8JE8dJGaa-7Noi-EUSGW-54" target="8JE8dJGaa-7Noi-EUSGW-56" edge="1">
          <mxGeometry relative="1" as="geometry" />
        </mxCell>
        <mxCell id="8JE8dJGaa-7Noi-EUSGW-54" value="&lt;span style=&quot;font-size: 20px;&quot;&gt;&lt;b&gt;Problems&lt;/b&gt;&lt;/span&gt;" style="text;html=1;align=center;verticalAlign=middle;whiteSpace=wrap;rounded=0;" parent="1" vertex="1">
          <mxGeometry x="931.25" y="555" width="142.5" height="30" as="geometry" />
        </mxCell>
        <mxCell id="8JE8dJGaa-7Noi-EUSGW-55" style="edgeStyle=orthogonalEdgeStyle;rounded=0;orthogonalLoop=1;jettySize=auto;html=1;exitX=1;exitY=0.5;exitDx=0;exitDy=0;entryX=0;entryY=0.5;entryDx=0;entryDy=0;" parent="1" source="8JE8dJGaa-7Noi-EUSGW-56" target="8JE8dJGaa-7Noi-EUSGW-57" edge="1">
          <mxGeometry relative="1" as="geometry" />
        </mxCell>
        <mxCell id="8JE8dJGaa-7Noi-EUSGW-56" value="&lt;span style=&quot;font-size: 20px;&quot;&gt;&lt;b&gt;Partial Solutions&lt;/b&gt;&lt;/span&gt;" style="text;html=1;align=center;verticalAlign=middle;whiteSpace=wrap;rounded=0;" parent="1" vertex="1">
          <mxGeometry x="1560" y="555" width="210" height="30" as="geometry" />
        </mxCell>
        <mxCell id="8JE8dJGaa-7Noi-EUSGW-57" value="&lt;span style=&quot;font-size: 20px;&quot;&gt;&lt;b&gt;Still to be Solved&lt;/b&gt;&lt;/span&gt;" style="text;html=1;align=center;verticalAlign=middle;whiteSpace=wrap;rounded=0;" parent="1" vertex="1">
          <mxGeometry x="2100" y="555" width="186.88" height="30" as="geometry" />
        </mxCell>
        <mxCell id="-tQFiQ8kx9aQ_QGWf1GP-1" value="&lt;font style=&quot;font-size: 18px;&quot;&gt;&lt;b&gt;Sustainable Static Coverage for Small Areas&lt;/b&gt;&lt;/font&gt;&lt;div&gt;&lt;b&gt;&lt;font style=&quot;font-size: 18px;&quot;&gt;&lt;br&gt;&lt;/font&gt;&lt;/b&gt;&lt;/div&gt;&lt;div&gt;&lt;b&gt;&lt;font style=&quot;font-size: 18px;&quot;&gt;&lt;br&gt;&lt;/font&gt;&lt;/b&gt;&lt;/div&gt;&lt;div&gt;&lt;b&gt;&lt;font style=&quot;font-size: 18px;&quot;&gt;&lt;br&gt;&lt;/font&gt;&lt;/b&gt;&lt;/div&gt;&lt;div&gt;&lt;b&gt;&lt;font style=&quot;font-size: 18px;&quot;&gt;&lt;br&gt;&lt;/font&gt;&lt;/b&gt;&lt;/div&gt;&lt;div&gt;&lt;b&gt;&lt;font style=&quot;font-size: 18px;&quot;&gt;&lt;br&gt;&lt;/font&gt;&lt;/b&gt;&lt;/div&gt;&lt;div&gt;&lt;br&gt;&lt;/div&gt;" style="rounded=1;whiteSpace=wrap;html=1;fontSize=19;fillColor=#fff2cc;strokeColor=none;" parent="1" vertex="1">
          <mxGeometry x="1340" y="-385" width="280" height="205" as="geometry" />
        </mxCell>
        <mxCell id="-tQFiQ8kx9aQ_QGWf1GP-2" value="" style="endArrow=classic;html=1;rounded=0;" parent="1" edge="1">
          <mxGeometry width="50" height="50" relative="1" as="geometry">
            <mxPoint x="1020" y="-160" as="sourcePoint" />
            <mxPoint x="1610" y="-160" as="targetPoint" />
          </mxGeometry>
        </mxCell>
        <mxCell id="-tQFiQ8kx9aQ_QGWf1GP-3" value="" style="endArrow=classic;html=1;rounded=0;" parent="1" edge="1">
          <mxGeometry width="50" height="50" relative="1" as="geometry">
            <mxPoint x="1020" y="-160" as="sourcePoint" />
            <mxPoint x="1020" y="-650" as="targetPoint" />
          </mxGeometry>
        </mxCell>
        <mxCell id="-tQFiQ8kx9aQ_QGWf1GP-4" value="&lt;b&gt;&lt;font style=&quot;font-size: 20px;&quot;&gt;Granularity&lt;/font&gt;&lt;/b&gt;" style="text;html=1;align=center;verticalAlign=middle;whiteSpace=wrap;rounded=0;" parent="1" vertex="1">
          <mxGeometry x="1251.25" y="-110" width="60" height="30" as="geometry" />
        </mxCell>
        <mxCell id="-tQFiQ8kx9aQ_QGWf1GP-5" value="&lt;b style=&quot;&quot;&gt;&lt;font style=&quot;font-size: 20px;&quot;&gt;Timeliness&lt;/font&gt;&lt;/b&gt;" style="text;html=1;align=center;verticalAlign=middle;whiteSpace=wrap;rounded=0;" parent="1" vertex="1">
          <mxGeometry x="870" y="-430" width="60" height="30" as="geometry" />
        </mxCell>
        <mxCell id="-tQFiQ8kx9aQ_QGWf1GP-6" value="&lt;span style=&quot;font-size: 16px;&quot;&gt;&lt;b&gt;fine-granularity&lt;/b&gt;&lt;/span&gt;" style="text;html=1;align=center;verticalAlign=middle;whiteSpace=wrap;rounded=0;" parent="1" vertex="1">
          <mxGeometry x="1490" y="-140" width="140" height="30" as="geometry" />
        </mxCell>
        <mxCell id="-tQFiQ8kx9aQ_QGWf1GP-7" value="&lt;span style=&quot;font-size: 16px;&quot;&gt;&lt;b&gt;coarse-granularity&lt;/b&gt;&lt;/span&gt;" style="text;html=1;align=center;verticalAlign=middle;whiteSpace=wrap;rounded=0;" parent="1" vertex="1">
          <mxGeometry x="1020" y="-140" width="160" height="30" as="geometry" />
        </mxCell>
        <mxCell id="-tQFiQ8kx9aQ_QGWf1GP-8" value="&lt;span style=&quot;font-size: 16px;&quot;&gt;&lt;b&gt;low-timeliness&lt;/b&gt;&lt;/span&gt;" style="text;html=1;align=center;verticalAlign=middle;whiteSpace=wrap;rounded=0;" parent="1" vertex="1">
          <mxGeometry x="870" y="-199" width="130" height="30" as="geometry" />
        </mxCell>
        <mxCell id="-tQFiQ8kx9aQ_QGWf1GP-9" value="&lt;span style=&quot;font-size: 16px;&quot;&gt;&lt;b&gt;high-timeliness&lt;/b&gt;&lt;/span&gt;" style="text;html=1;align=center;verticalAlign=middle;whiteSpace=wrap;rounded=0;" parent="1" vertex="1">
          <mxGeometry x="870" y="-620" width="130" height="30" as="geometry" />
        </mxCell>
        <mxCell id="-tQFiQ8kx9aQ_QGWf1GP-10" value="&lt;b&gt;Persistent Deployment of Wide-Area&lt;br&gt;&lt;/b&gt;&lt;div&gt;&lt;b&gt;&lt;font style=&quot;font-size: 18px;&quot;&gt;&lt;br&gt;&lt;/font&gt;&lt;/b&gt;&lt;/div&gt;&lt;div&gt;&lt;b&gt;&lt;font style=&quot;font-size: 18px;&quot;&gt;&lt;br&gt;&lt;/font&gt;&lt;/b&gt;&lt;/div&gt;&lt;div&gt;&lt;b&gt;&lt;font style=&quot;font-size: 18px;&quot;&gt;&lt;br&gt;&lt;/font&gt;&lt;/b&gt;&lt;/div&gt;&lt;div&gt;&lt;b&gt;&lt;font style=&quot;font-size: 18px;&quot;&gt;&lt;br&gt;&lt;/font&gt;&lt;/b&gt;&lt;/div&gt;&lt;div&gt;&lt;b&gt;&lt;font style=&quot;font-size: 18px;&quot;&gt;&lt;br&gt;&lt;/font&gt;&lt;/b&gt;&lt;/div&gt;&lt;div&gt;&lt;br&gt;&lt;/div&gt;" style="rounded=1;whiteSpace=wrap;html=1;fontSize=19;fillColor=#d5e8d4;strokeColor=none;" parent="1" vertex="1">
          <mxGeometry x="1040" y="-385" width="280" height="205" as="geometry" />
        </mxCell>
        <mxCell id="-tQFiQ8kx9aQ_QGWf1GP-11" value="&lt;font style=&quot;font-size: 18px;&quot;&gt;&lt;b&gt;Rapid Deployment for Emergency Communication&lt;/b&gt;&lt;/font&gt;&lt;div&gt;&lt;b&gt;&lt;font style=&quot;font-size: 18px;&quot;&gt;&lt;br&gt;&lt;/font&gt;&lt;/b&gt;&lt;/div&gt;&lt;div&gt;&lt;b&gt;&lt;font style=&quot;font-size: 18px;&quot;&gt;&lt;br&gt;&lt;/font&gt;&lt;/b&gt;&lt;/div&gt;&lt;div&gt;&lt;b&gt;&lt;font style=&quot;font-size: 18px;&quot;&gt;&lt;br&gt;&lt;/font&gt;&lt;/b&gt;&lt;/div&gt;&lt;div&gt;&lt;b&gt;&lt;font style=&quot;font-size: 18px;&quot;&gt;&lt;br&gt;&lt;/font&gt;&lt;/b&gt;&lt;/div&gt;&lt;div&gt;&lt;b&gt;&lt;font style=&quot;font-size: 18px;&quot;&gt;&lt;br&gt;&lt;/font&gt;&lt;/b&gt;&lt;/div&gt;&lt;div&gt;&lt;br&gt;&lt;/div&gt;" style="rounded=1;whiteSpace=wrap;html=1;fontSize=19;fillColor=#dae8fc;strokeColor=none;" parent="1" vertex="1">
          <mxGeometry x="1341.25" y="-620" width="280" height="205" as="geometry" />
        </mxCell>
        <mxCell id="-tQFiQ8kx9aQ_QGWf1GP-12" value="&lt;font style=&quot;font-size: 18px;&quot;&gt;&lt;b&gt;Wide-Area Communication Recovery in Disasters&lt;br&gt;&lt;/b&gt;&lt;/font&gt;&lt;div&gt;&lt;b&gt;&lt;font style=&quot;font-size: 18px;&quot;&gt;&lt;br&gt;&lt;/font&gt;&lt;/b&gt;&lt;/div&gt;&lt;div&gt;&lt;b&gt;&lt;font style=&quot;font-size: 18px;&quot;&gt;&lt;br&gt;&lt;/font&gt;&lt;/b&gt;&lt;/div&gt;&lt;div&gt;&lt;b&gt;&lt;font style=&quot;font-size: 18px;&quot;&gt;&lt;br&gt;&lt;/font&gt;&lt;/b&gt;&lt;/div&gt;&lt;div&gt;&lt;b&gt;&lt;font style=&quot;font-size: 18px;&quot;&gt;&lt;br&gt;&lt;/font&gt;&lt;/b&gt;&lt;/div&gt;&lt;div&gt;&lt;b&gt;&lt;font style=&quot;font-size: 18px;&quot;&gt;&lt;br&gt;&lt;/font&gt;&lt;/b&gt;&lt;/div&gt;&lt;div&gt;&lt;br&gt;&lt;/div&gt;" style="rounded=1;whiteSpace=wrap;html=1;fontSize=19;fillColor=#e1d5e7;strokeColor=none;" parent="1" vertex="1">
          <mxGeometry x="1040" y="-620" width="280" height="205" as="geometry" />
        </mxCell>
        <mxCell id="-tQFiQ8kx9aQ_QGWf1GP-13" value="Energy efficiency" style="rounded=1;whiteSpace=wrap;html=1;strokeWidth=1;fontSize=14;" parent="1" vertex="1">
          <mxGeometry x="1350" y="-325" width="260" height="35" as="geometry" />
        </mxCell>
        <mxCell id="-tQFiQ8kx9aQ_QGWf1GP-14" value="Stable links" style="rounded=1;whiteSpace=wrap;html=1;strokeWidth=1;fontSize=14;" parent="1" vertex="1">
          <mxGeometry x="1350" y="-280" width="260" height="35" as="geometry" />
        </mxCell>
        <mxCell id="-tQFiQ8kx9aQ_QGWf1GP-15" value="Optimized deployment" style="rounded=1;whiteSpace=wrap;html=1;strokeWidth=1;fontSize=14;" parent="1" vertex="1">
          <mxGeometry x="1351.25" y="-234" width="260" height="35" as="geometry" />
        </mxCell>
        <mxCell id="-tQFiQ8kx9aQ_QGWf1GP-16" value="Network topology optimization" style="rounded=1;whiteSpace=wrap;html=1;strokeWidth=1;fontSize=14;" parent="1" vertex="1">
          <mxGeometry x="1051.5700000000002" y="-310" width="260" height="35" as="geometry" />
        </mxCell>
        <mxCell id="-tQFiQ8kx9aQ_QGWf1GP-17" value="Resource management" style="rounded=1;whiteSpace=wrap;html=1;strokeWidth=1;fontSize=14;" parent="1" vertex="1">
          <mxGeometry x="1050.0000000000002" y="-250" width="260" height="35" as="geometry" />
        </mxCell>
        <mxCell id="-tQFiQ8kx9aQ_QGWf1GP-18" value="Fast setup" style="rounded=1;whiteSpace=wrap;html=1;strokeWidth=1;fontSize=14;" parent="1" vertex="1">
          <mxGeometry x="1349.37" y="-556" width="260" height="35" as="geometry" />
        </mxCell>
        <mxCell id="-tQFiQ8kx9aQ_QGWf1GP-19" value="Interference resistance" style="rounded=1;whiteSpace=wrap;html=1;strokeWidth=1;fontSize=14;" parent="1" vertex="1">
          <mxGeometry x="1349.37" y="-511" width="260" height="35" as="geometry" />
        </mxCell>
        <mxCell id="-tQFiQ8kx9aQ_QGWf1GP-20" value="Adaptive response" style="rounded=1;whiteSpace=wrap;html=1;strokeWidth=1;fontSize=14;" parent="1" vertex="1">
          <mxGeometry x="1350.62" y="-465" width="260" height="35" as="geometry" />
        </mxCell>
        <mxCell id="-tQFiQ8kx9aQ_QGWf1GP-21" value="Real-time path planning" style="rounded=1;whiteSpace=wrap;html=1;strokeWidth=1;fontSize=14;" parent="1" vertex="1">
          <mxGeometry x="1051.57" y="-556" width="260" height="35" as="geometry" />
        </mxCell>
        <mxCell id="-tQFiQ8kx9aQ_QGWf1GP-22" value="Dynamic link adjustment" style="rounded=1;whiteSpace=wrap;html=1;strokeWidth=1;fontSize=14;" parent="1" vertex="1">
          <mxGeometry x="1051.57" y="-511" width="260" height="35" as="geometry" />
        </mxCell>
        <mxCell id="-tQFiQ8kx9aQ_QGWf1GP-23" value="Resource allocation" style="rounded=1;whiteSpace=wrap;html=1;strokeWidth=1;fontSize=14;" parent="1" vertex="1">
          <mxGeometry x="1052.82" y="-465" width="260" height="35" as="geometry" />
        </mxCell>
        <mxCell id="AHgwAtBn9opc_SdNSLN8-1" value="&lt;font style=&quot;font-size: 18px;&quot;&gt;&lt;b&gt;Full Coverage of Small Areas&lt;/b&gt;&lt;/font&gt;&lt;div&gt;&lt;b&gt;&lt;font style=&quot;font-size: 18px;&quot;&gt;&lt;br&gt;&lt;/font&gt;&lt;/b&gt;&lt;/div&gt;&lt;div&gt;&lt;br&gt;&lt;/div&gt;&lt;div&gt;&lt;b&gt;&lt;font style=&quot;font-size: 18px;&quot;&gt;&lt;br&gt;&lt;/font&gt;&lt;/b&gt;&lt;/div&gt;&lt;div&gt;&lt;b&gt;&lt;font style=&quot;font-size: 18px;&quot;&gt;&lt;br&gt;&lt;/font&gt;&lt;/b&gt;&lt;/div&gt;&lt;div&gt;&lt;b&gt;&lt;font style=&quot;font-size: 18px;&quot;&gt;&lt;br&gt;&lt;/font&gt;&lt;/b&gt;&lt;/div&gt;&lt;div&gt;&lt;br&gt;&lt;/div&gt;" style="rounded=1;whiteSpace=wrap;html=1;fontSize=19;fillColor=#fff2cc;strokeColor=none;" vertex="1" parent="1">
          <mxGeometry x="-640" y="-445" width="280" height="205" as="geometry" />
        </mxCell>
        <mxCell id="AHgwAtBn9opc_SdNSLN8-2" value="" style="endArrow=classic;html=1;rounded=0;" edge="1" parent="1">
          <mxGeometry width="50" height="50" relative="1" as="geometry">
            <mxPoint x="-650" y="-230" as="sourcePoint" />
            <mxPoint x="-60" y="-230" as="targetPoint" />
          </mxGeometry>
        </mxCell>
        <mxCell id="AHgwAtBn9opc_SdNSLN8-3" value="" style="endArrow=classic;html=1;rounded=0;" edge="1" parent="1">
          <mxGeometry width="50" height="50" relative="1" as="geometry">
            <mxPoint x="-650" y="-230" as="sourcePoint" />
            <mxPoint x="-650" y="-720" as="targetPoint" />
          </mxGeometry>
        </mxCell>
        <mxCell id="AHgwAtBn9opc_SdNSLN8-4" value="&lt;b&gt;&lt;font style=&quot;font-size: 20px;&quot;&gt;Spatial&lt;/font&gt;&lt;/b&gt;" style="text;html=1;align=center;verticalAlign=middle;whiteSpace=wrap;rounded=0;" vertex="1" parent="1">
          <mxGeometry x="-418.75" y="-180" width="60" height="30" as="geometry" />
        </mxCell>
        <mxCell id="AHgwAtBn9opc_SdNSLN8-5" value="&lt;span style=&quot;font-size: 20px;&quot;&gt;&lt;b&gt;Temporal&lt;/b&gt;&lt;/span&gt;" style="text;html=1;align=center;verticalAlign=middle;whiteSpace=wrap;rounded=0;" vertex="1" parent="1">
          <mxGeometry x="-800" y="-500" width="60" height="30" as="geometry" />
        </mxCell>
        <mxCell id="AHgwAtBn9opc_SdNSLN8-6" value="&lt;span style=&quot;font-size: 16px;&quot;&gt;&lt;b&gt;coverage&lt;/b&gt;&lt;/span&gt;" style="text;html=1;align=center;verticalAlign=middle;whiteSpace=wrap;rounded=0;" vertex="1" parent="1">
          <mxGeometry x="-131.8699999999999" y="-210" width="60" height="30" as="geometry" />
        </mxCell>
        <mxCell id="AHgwAtBn9opc_SdNSLN8-7" value="&lt;span style=&quot;font-size: 16px;&quot;&gt;&lt;b&gt;efficiency&lt;/b&gt;&lt;/span&gt;" style="text;html=1;align=center;verticalAlign=middle;whiteSpace=wrap;rounded=0;" vertex="1" parent="1">
          <mxGeometry x="-750" y="-695" width="60" height="30" as="geometry" />
        </mxCell>
        <mxCell id="AHgwAtBn9opc_SdNSLN8-8" value="&lt;b&gt;Persistent Deployment of Wide-Area&lt;br&gt;&lt;/b&gt;&lt;div&gt;&lt;b&gt;&lt;font style=&quot;font-size: 18px;&quot;&gt;&lt;br&gt;&lt;/font&gt;&lt;/b&gt;&lt;/div&gt;&lt;div&gt;&lt;b&gt;&lt;font style=&quot;font-size: 18px;&quot;&gt;&lt;br&gt;&lt;/font&gt;&lt;/b&gt;&lt;/div&gt;&lt;div&gt;&lt;b&gt;&lt;font style=&quot;font-size: 18px;&quot;&gt;&lt;br&gt;&lt;/font&gt;&lt;/b&gt;&lt;/div&gt;&lt;div&gt;&lt;b&gt;&lt;font style=&quot;font-size: 18px;&quot;&gt;&lt;br&gt;&lt;/font&gt;&lt;/b&gt;&lt;/div&gt;&lt;div&gt;&lt;b&gt;&lt;font style=&quot;font-size: 18px;&quot;&gt;&lt;br&gt;&lt;/font&gt;&lt;/b&gt;&lt;/div&gt;&lt;div&gt;&lt;br&gt;&lt;/div&gt;" style="rounded=1;whiteSpace=wrap;html=1;fontSize=19;fillColor=#d5e8d4;strokeColor=none;" vertex="1" parent="1">
          <mxGeometry x="-343.44000000000005" y="-445" width="280" height="205" as="geometry" />
        </mxCell>
        <mxCell id="AHgwAtBn9opc_SdNSLN8-9" value="&lt;font style=&quot;font-size: 18px;&quot;&gt;&lt;b&gt;Adaptive Sensing&lt;/b&gt;&lt;/font&gt;&lt;div&gt;&lt;b&gt;&lt;font style=&quot;font-size: 18px;&quot;&gt;&lt;br&gt;&lt;/font&gt;&lt;/b&gt;&lt;/div&gt;&lt;div&gt;&lt;b&gt;&lt;font style=&quot;font-size: 18px;&quot;&gt;&lt;br&gt;&lt;/font&gt;&lt;/b&gt;&lt;/div&gt;&lt;div&gt;&lt;b&gt;&lt;font style=&quot;font-size: 18px;&quot;&gt;&lt;br&gt;&lt;/font&gt;&lt;/b&gt;&lt;/div&gt;&lt;div&gt;&lt;b&gt;&lt;font style=&quot;font-size: 18px;&quot;&gt;&lt;br&gt;&lt;/font&gt;&lt;/b&gt;&lt;/div&gt;&lt;div&gt;&lt;b&gt;&lt;font style=&quot;font-size: 18px;&quot;&gt;&lt;br&gt;&lt;/font&gt;&lt;/b&gt;&lt;/div&gt;&lt;div&gt;&lt;br&gt;&lt;/div&gt;" style="rounded=1;whiteSpace=wrap;html=1;fontSize=19;fillColor=#dae8fc;strokeColor=none;" vertex="1" parent="1">
          <mxGeometry x="-638.75" y="-680" width="280" height="205" as="geometry" />
        </mxCell>
        <mxCell id="AHgwAtBn9opc_SdNSLN8-10" value="&lt;font style=&quot;font-size: 18px;&quot;&gt;&lt;b&gt;Wide-Area Sensing in Disasters&lt;br&gt;&lt;/b&gt;&lt;/font&gt;&lt;div&gt;&lt;b&gt;&lt;font style=&quot;font-size: 18px;&quot;&gt;&lt;br&gt;&lt;/font&gt;&lt;/b&gt;&lt;/div&gt;&lt;div&gt;&lt;b&gt;&lt;font style=&quot;font-size: 18px;&quot;&gt;&lt;br&gt;&lt;/font&gt;&lt;/b&gt;&lt;/div&gt;&lt;div&gt;&lt;b&gt;&lt;font style=&quot;font-size: 18px;&quot;&gt;&lt;br&gt;&lt;/font&gt;&lt;/b&gt;&lt;/div&gt;&lt;div&gt;&lt;b&gt;&lt;font style=&quot;font-size: 18px;&quot;&gt;&lt;br&gt;&lt;/font&gt;&lt;/b&gt;&lt;/div&gt;&lt;div&gt;&lt;b&gt;&lt;font style=&quot;font-size: 18px;&quot;&gt;&lt;br&gt;&lt;/font&gt;&lt;/b&gt;&lt;/div&gt;&lt;div&gt;&lt;br&gt;&lt;/div&gt;" style="rounded=1;whiteSpace=wrap;html=1;fontSize=19;fillColor=#e1d5e7;strokeColor=none;" vertex="1" parent="1">
          <mxGeometry x="-343.44000000000005" y="-680" width="280" height="205" as="geometry" />
        </mxCell>
        <mxCell id="AHgwAtBn9opc_SdNSLN8-11" value="Maximize visibility angle for full coverage of 3D surfaces" style="rounded=1;whiteSpace=wrap;html=1;" vertex="1" parent="1">
          <mxGeometry x="-630" y="-370" width="260" height="35" as="geometry" />
        </mxCell>
        <mxCell id="AHgwAtBn9opc_SdNSLN8-12" value="high-resolution maps" style="rounded=1;whiteSpace=wrap;html=1;" vertex="1" parent="1">
          <mxGeometry x="-630" y="-310" width="260" height="35" as="geometry" />
        </mxCell>
        <mxCell id="AHgwAtBn9opc_SdNSLN8-13" value="Optimization of Coverage" style="rounded=1;whiteSpace=wrap;html=1;" vertex="1" parent="1">
          <mxGeometry x="-331.8699999999999" y="-370" width="260" height="35" as="geometry" />
        </mxCell>
        <mxCell id="AHgwAtBn9opc_SdNSLN8-14" value="Best angle to capture target features" style="rounded=1;whiteSpace=wrap;html=1;" vertex="1" parent="1">
          <mxGeometry x="-333.4399999999998" y="-310" width="260" height="35" as="geometry" />
        </mxCell>
        <mxCell id="AHgwAtBn9opc_SdNSLN8-15" value="Optimization of Efficiency" style="rounded=1;whiteSpace=wrap;html=1;" vertex="1" parent="1">
          <mxGeometry x="-630.6300000000001" y="-610" width="260" height="35" as="geometry" />
        </mxCell>
        <mxCell id="AHgwAtBn9opc_SdNSLN8-16" value="Real-Time Optimization under Dynamic Conditions" style="rounded=1;whiteSpace=wrap;html=1;" vertex="1" parent="1">
          <mxGeometry x="-629.3800000000001" y="-550" width="260" height="35" as="geometry" />
        </mxCell>
        <mxCell id="AHgwAtBn9opc_SdNSLN8-17" value="Autonomous Exploration in Unknown Environments" style="rounded=1;whiteSpace=wrap;html=1;" vertex="1" parent="1">
          <mxGeometry x="-331.8700000000001" y="-610" width="260" height="35" as="geometry" />
        </mxCell>
        <mxCell id="AHgwAtBn9opc_SdNSLN8-18" value="" style="rounded=1;whiteSpace=wrap;html=1;" vertex="1" parent="1">
          <mxGeometry x="-330.6200000000001" y="-550" width="260" height="35" as="geometry" />
        </mxCell>
      </root>
    </mxGraphModel>
  </diagram>
</mxfile>
